# xmcd
#
# Track frame offsets: 
#        150
#        12027
#        23050
#        36515
#        47790
#        57470
#        72175
#        82695
#        95737
#        108807
#        118205
#        132397
#
# Disc length: 1943 seconds
#
# Revision: 0
# Processed by: cddbd v1.4PL0 Copyright (c) Steve Scherf et al.
# Submitted via: ExactAudioCopy v0.90b3
#
DISCID=9d07950c
DTITLE=Keith Whitley and Ricky Skaggs - Whitley and Skaggs (Second Generat
DTITLE=ion)
DYEAR=1900
DGENRE=Country
TTITLE0=Don't Cheat In Our Hometown
TTITLE1=Dream Of A Miner's Child
TTITLE2=Memories Of Mother
TTITLE3=Poor Monroe
TTITLE4=Daybreak In Dixie
TTITLE5=All I Ever Loved Was You
TTITLE6=My Deceitful Heart
TTITLE7=Son Of Hobert
TTITLE8=Sea Of Regret
TTITLE9=Those Two Blue Eyes
TTITLE10=Wildwood Flower
TTITLE11=This Weary Heart You Stole Away
EXTD=
EXTT0=
EXTT1=
EXTT2=
EXTT3=
EXTT4=
EXTT5=
EXTT6=
EXTT7=
EXTT8=
EXTT9=
EXTT10=
EXTT11=
PLAYORDER=
